# xmcd
#
# Track frame offsets: 
#        150
#        21977
#        43210
#        57198
#        90145
#        108536
#        124865
#        145457
#        166801
#        181737
#        207171
#        230689
#        255656
#
# Disc length: 3787 seconds
#
# Revision: 0
# Processed by: cddbd v1.5.1PL0 Copyright (c) Steve Scherf et al.
# Submitted via: ExactAudioCopy v0.95a5
#
DISCID=b00ec90d
DTITLE=Kentár - Blús á Grandrokk
DYEAR=2003
DGENRE=Blues
TTITLE0=I'm Lost Without You
TTITLE1=Let The Good Times Roll
TTITLE2=(bomm bomm) Out Goes The Light
TTITLE3=Rockin' Daddy
TTITLE4=It's Too Late Brother
TTITLE5=Messin' With The Kid
TTITLE6=My Baby Is Sweeter
TTITLE7=Mystery Train
TTITLE8=If Walls Could Talk
TTITLE9=Hideaway
TTITLE10=You Don't Love Me
TTITLE11=Baby Left Town
TTITLE12=Caledonia
EXTD=
EXTT0=
EXTT1=
EXTT2=
EXTT3=
EXTT4=
EXTT5=
EXTT6=
EXTT7=
EXTT8=
EXTT9=
EXTT10=
EXTT11=
EXTT12=
PLAYORDER=
